<?xml version="1.0" standalone="no"?>
<!DOCTYPE svg PUBLIC "-//W3C//DTD SVG 20010904//EN"
 "http://www.w3.org/TR/2001/REC-SVG-20010904/DTD/svg10.dtd">
<svg version="1.0" xmlns="http://www.w3.org/2000/svg"
 width="195.000000pt" height="195.000000pt" viewBox="0 0 195.000000 195.000000"
 preserveAspectRatio="xMidYMid meet">
<metadata>
Created by potrace 1.11, written by Peter Selinger 2001-2013
</metadata>
<g transform="translate(0.000000,195.000000) scale(0.100000,-0.100000)"
fill="#000000" stroke="none">
<path d="M886 1458 c-14 -13 -55 -75 -91 -138 l-65 -115 0 121 c0 80 -4 124
-12 132 -9 9 -69 12 -210 12 l-198 0 -29 -27 c-26 -25 -42 -74 -150 -451 -67
-233 -121 -434 -121 -447 0 -49 11 -51 271 -58 133 -4 362 -7 509 -7 l267 0
22 23 c14 16 40 88 78 220 l56 197 78 0 c44 0 79 -2 79 -5 0 -2 -25 -92 -55
-201 -41 -149 -52 -201 -44 -215 9 -17 23 -19 178 -19 152 0 170 2 185 19 29
32 179 448 275 764 40 131 42 140 27 163 -16 24 -18 24 -167 24 l-151 0 -26
-28 c-15 -16 -39 -50 -54 -75 -33 -56 -65 -74 -157 -85 -60 -7 -71 -6 -66 5 2
8 15 48 27 89 17 60 19 79 10 99 l-12 25 -214 0 c-209 0 -216 -1 -240 -22z"/>
</g>
</svg>
